No Ordinary Trifle (2011) DVDRip AC3 DMT
.
Subs: Dutch vobsubs
.
Screen:    http://bayimg.com/aaigoaADF
.
[IMG]http://img809.imageshack.us/img809/3419/76179.jpg[/IMG]
.
Verenigd Koninkrijk
Komedie / Romantiek
91 minuten
.
geregisseerd door James Hacking
met Claire Forlani, Dougray Scott en Gordon Ramsay
.
Rob Haley (Dougray Scott), een rijzende chef-kok en restauranthouder in Londen, is overmand door verdriet wanneer hij zijn vrouw verliest. Met de aanmoedigingen van zijn beruchte vriend en tv-kok Gordon Ramsey besluit Rob om zijn bestaan wat op te peppen door een armoedige pub om te toveren in een restaurant. Zijn gerechten springen in het oog bij de knappe Amerikaanse restaurant recensente Kate Templeton (Claire Forlani). Al snel ontstaat er een romance tussen beide.
. 
http://www.moviemeter.nl/film/76179
.
PLOT
.
Rob Haley (Dougray Scott), an up-and-coming chef and restaurateur in London, is grief-stricken when he loses his wife... 
. 
http://www.imdb.com/title/tt1519663/
.
[IMG]http://img810.imageshack.us/img810/4570/noordinarydvdrip2011avi.jpg[/IMG]
.
INFO
.
Format                           : AVI
Format/Info                      : Audio Video Interleave
File size                        : 698 MiB
Duration                         : 1h 28mn
Overall bit rate                 : 1 099 Kbps
Writing application              : FairUse Wizard - http://fairusewizard.com
Writing library                  : The best and REALLY easy backup tool

Video
ID                               : 0
Format                           : AVC
Format/Info                      : Advanced Video Codec
Format profile                   : High@L2.2
Format settings, CABAC           : Yes
Format settings, ReFrames        : 10 frames
Codec ID                         : H264
Duration                         : 1h 28mn
Bit rate                         : 865 Kbps
Width                            : 608 pixels
Height                           : 336 pixels
Display aspect ratio             : 16:9
Frame rate                       : 25.000 fps
Color space                      : YUV
Chroma subsampling               : 4:2:0
Bit depth                        : 8 bits
Scan type                        : Progressive
Bits/(Pixel*Frame)               : 0.169
Stream size                      : 550 MiB (79%)
Writing library                  : x264 core 93 r1538bm bd72d46
Encoding settings                : cabac=1 / ref=10 / deblock=1:-2:-1 / analyse=0x3:0x133 / me=umh / subme=6 / psy=1 / psy_rd=1.00:0.00 / mixed_ref=1 / me_range=16 / chroma_me=1 / trellis=2 / 8x8dct=1 / cqm=0 / deadzone=21,11 / fast_pskip=0 / chroma_qp_offset=-2 / threads=2 / sliced_threads=0 / nr=0 / decimate=1 / interlaced=0 / constrained_intra=0 / bframes=16 / b_pyramid=2 / b_adapt=1 / b_bias=0 / direct=1 / wpredb=1 / wpredp=2 / keyint=250 / keyint_min=25 / scenecut=40 / intra_refresh=0 / rc_lookahead=40 / rc=2pass / mbtree=1 / bitrate=865 / ratetol=1.0 / qcomp=0.60 / qpmin=10 / qpmax=51 / qpstep=4 / cplxblur=20.0 / qblur=0.5 / ip_ratio=1.40 / aq=1:1.00

Audio
ID                               : 1
Format                           : AC-3
Format/Info                      : Audio Coding 3
Mode extension                   : CM (complete main)
Codec ID                         : 2000
Duration                         : 1h 28mn
Bit rate mode                    : Constant
Bit rate                         : 224 Kbps
Channel(s)                       : 2 channels
Channel positions                : Front: L R
Sampling rate                    : 48.0 KHz
Bit depth                        : 16 bits
Stream size                      : 142 MiB (20%)
Alignment                        : Split accross interleaves
Interleave, duration             : 40 ms (1.00 video frame)
Interleave, preload duration     : 500 ms


 
